<svg id="Layer_1" data-name="Layer 1" xmlns="http://www.w3.org/2000/svg" viewBox="0 0 727.16 911.07"><defs><style>.cls-1{fill:#cccccb;}.cls-2{fill:#fbd7d7;}.cls-3{fill:#1c1a1a;}.cls-4{fill:none;stroke:#1c1a1a;stroke-miterlimit:10;stroke-width:6px;}</style></defs><path class="cls-1" d="M442.29,294.64c28.31,164.35,16,303.66-27.51,311.15s-101.72-119.66-130-284-.47-304.7,27.52-311.15S414,130.3,442.29,294.64Z" transform="translate(-238.58 -10.4)"/><path class="cls-1" d="M559.87,293.25C529.25,457.18,539.6,596.65,583,604.75S686.39,486.53,717,322.6s4.76-304.66-23.13-311.5S590.49,129.32,559.87,293.25Z" transform="translate(-238.58 -10.4)"/><path class="cls-2" d="M428.91,311.63C452.45,448.31,443.27,564,408.41,570s-82.21-99.93-105.76-236.6S300.74,80.24,323.15,75,405.36,175,428.91,311.63Z" transform="translate(-238.58 -10.4)"/><path class="cls-2" d="M573,310.42C547.55,446.75,555.1,562.54,589.87,569S673.48,470.27,699,333.94s5.48-253.08-16.86-258.61S598.48,174.09,573,310.42Z" transform="translate(-238.58 -10.4)"/><path class="cls-1" d="M767.9,686c0,126.73-116.77,174.49-262.94,174.49S238.58,812.68,238.58,686,357.07,456.51,503.24,456.51,767.9,559.23,767.9,686Z" transform="translate(-238.58 -10.4)"/><circle class="cls-3" cx="123.19" cy="671.59" r="26.32"/><path class="cls-3" d="M523.47,681.05c.46,13.61-10.91,32.16-24.35,32.16s-24.36-18.54-24.36-32.16,10.91-17.16,24.36-17.16S522.84,662.53,523.47,681.05Z" transform="translate(-238.58 -10.4)"/><circle class="cls-3" cx="397.25" cy="664.64" r="26.32"/><path class="cls-4" d="M497.56,704.92c0,28.84-6.76,38.88-14.53,38.88-4.18,0-7.93-6.76-10.51-17.49" transform="translate(-238.58 -10.4)"/><path class="cls-4" d="M525.64,714.46" transform="translate(-238.58 -10.4)"/><path class="cls-4" d="M500.34,711.4c0,1-.07,2-.07,3.05,0,15.61,5.67,28.27,12.68,28.27,5.25,0,9.76-7.12,11.69-17.26" transform="translate(-238.58 -10.4)"/><path class="cls-4" d="M500.19,780.46" transform="translate(-238.58 -10.4)"/><path class="cls-4" d="M532.55,750.29" transform="translate(-238.58 -10.4)"/><ellipse class="cls-2" cx="81.86" cy="704.24" rx="27" ry="29.16"/><ellipse class="cls-2" cx="680.18" cy="705.66" rx="27" ry="29.16" transform="translate(-272.94 24.41) rotate(-2.86)"/><circle class="cls-1" cx="680.18" cy="760.4" r="46.99"/><circle class="cls-2" cx="680.18" cy="864.08" r="46.99"/></svg>