<?xml version="1.0" encoding="utf-8"?>
<!-- Generator: Adobe Illustrator 25.1.0, SVG Export Plug-In . SVG Version: 6.00 Build 0)  -->
<svg version="1.1" id="Layer_1" xmlns="http://www.w3.org/2000/svg" xmlns:xlink="http://www.w3.org/1999/xlink" x="0px" y="0px"
	 viewBox="0 0 595.28 841.89" style="enable-background:new 0 0 595.28 841.89;" xml:space="preserve">
<style type="text/css">
	.st0{fill:#575756;}
	.st1{fill:#706F6F;}
	.st2{fill:url(#SVGID_1_);stroke:#000000;stroke-miterlimit:10;}
	.st3{fill:url(#SVGID_2_);stroke:#000000;stroke-miterlimit:10;}
	.st4{fill:url(#SVGID_3_);stroke:#000000;stroke-miterlimit:10;}
	.st5{fill:url(#SVGID_4_);stroke:#000000;stroke-miterlimit:10;}
	.st6{fill:url(#SVGID_5_);}
	.st7{fill:#9D9D9C;}
	.st8{fill:url(#SVGID_6_);}
	.st9{fill:#FFFFFF;}
	.st10{fill:url(#SVGID_7_);}
</style>
<path class="st0" d="M250.88,170.64c3.37-0.66,28.83,21.76,35.5,55.93s-7.97,67.16-11.34,67.82c-3.37,0.66,5.81-31.26-0.86-65.44
	C267.51,194.78,247.51,171.3,250.88,170.64z"/>
<path class="st1" d="M260.27,150.92c3.41-0.39,27,23.99,30.91,58.59s-13.31,66.31-16.72,66.7s8.29-30.7,4.37-65.3
	C274.92,176.31,256.86,151.3,260.27,150.92z"/>
<path class="st1" d="M257.97,121.09c3.32-0.88,30.19,19.82,39.09,53.48s-3.55,67.54-6.87,68.42c-3.32,0.88,3.75-31.58-5.15-65.24
	S254.65,121.97,257.97,121.09z"/>
<g>
	<g>
		
			<radialGradient id="SVGID_1_" cx="-123.9178" cy="203.0822" r="93.4931" gradientTransform="matrix(-1 0 0 -1 308.3288 436.3014)" gradientUnits="userSpaceOnUse">
			<stop  offset="0" style="stop-color:#878787;stop-opacity:0.9"/>
			<stop  offset="0.1109" style="stop-color:#838383;stop-opacity:0.9111"/>
			<stop  offset="0.2519" style="stop-color:#777777;stop-opacity:0.9252"/>
			<stop  offset="0.4092" style="stop-color:#646364;stop-opacity:0.9409"/>
			<stop  offset="0.5785" style="stop-color:#4D4B4C;stop-opacity:0.9579"/>
			<stop  offset="0.7572" style="stop-color:#333132;stop-opacity:0.9757"/>
			<stop  offset="0.9412" style="stop-color:#171617;stop-opacity:0.9941"/>
			<stop  offset="1" style="stop-color:#0E0E0E"/>
		</radialGradient>
		<circle class="st2" cx="432.25" cy="233.22" r="93.49"/>
	</g>
	<g>
		
			<radialGradient id="SVGID_2_" cx="-122.8904" cy="204.9589" r="52.7797" gradientTransform="matrix(-1 0 0 -1 308.3288 436.3014)" gradientUnits="userSpaceOnUse">
			<stop  offset="0" style="stop-color:#878787;stop-opacity:0.9"/>
			<stop  offset="0.1109" style="stop-color:#838383;stop-opacity:0.9111"/>
			<stop  offset="0.2519" style="stop-color:#777777;stop-opacity:0.9252"/>
			<stop  offset="0.4092" style="stop-color:#646364;stop-opacity:0.9409"/>
			<stop  offset="0.5785" style="stop-color:#4D4B4C;stop-opacity:0.9579"/>
			<stop  offset="0.7572" style="stop-color:#333132;stop-opacity:0.9757"/>
			<stop  offset="0.9412" style="stop-color:#171617;stop-opacity:0.9941"/>
			<stop  offset="1" style="stop-color:#0E0E0E"/>
		</radialGradient>
		<ellipse class="st3" cx="431.22" cy="231.34" rx="54.79" ry="50.68"/>
	</g>
	<g>
		<radialGradient id="SVGID_3_" cx="154.5069" cy="222.4384" r="93.4931" gradientUnits="userSpaceOnUse">
			<stop  offset="0" style="stop-color:#878787;stop-opacity:0.9"/>
			<stop  offset="0.1109" style="stop-color:#838383;stop-opacity:0.9111"/>
			<stop  offset="0.2519" style="stop-color:#777777;stop-opacity:0.9252"/>
			<stop  offset="0.4092" style="stop-color:#646364;stop-opacity:0.9409"/>
			<stop  offset="0.5785" style="stop-color:#4D4B4C;stop-opacity:0.9579"/>
			<stop  offset="0.7572" style="stop-color:#333132;stop-opacity:0.9757"/>
			<stop  offset="0.9412" style="stop-color:#171617;stop-opacity:0.9941"/>
			<stop  offset="1" style="stop-color:#0E0E0E"/>
		</radialGradient>
		<circle class="st4" cx="154.51" cy="222.44" r="93.49"/>
	</g>
	<g>
		<radialGradient id="SVGID_4_" cx="155.5342" cy="224.3151" r="52.7797" gradientUnits="userSpaceOnUse">
			<stop  offset="0" style="stop-color:#878787;stop-opacity:0.9"/>
			<stop  offset="0.1109" style="stop-color:#838383;stop-opacity:0.9111"/>
			<stop  offset="0.2519" style="stop-color:#777777;stop-opacity:0.9252"/>
			<stop  offset="0.4092" style="stop-color:#646364;stop-opacity:0.9409"/>
			<stop  offset="0.5785" style="stop-color:#4D4B4C;stop-opacity:0.9579"/>
			<stop  offset="0.7572" style="stop-color:#333132;stop-opacity:0.9757"/>
			<stop  offset="0.9412" style="stop-color:#171617;stop-opacity:0.9941"/>
			<stop  offset="1" style="stop-color:#0E0E0E"/>
		</radialGradient>
		<ellipse class="st5" cx="155.53" cy="224.32" rx="54.79" ry="50.68"/>
	</g>
	
		<radialGradient id="SVGID_5_" cx="288.7808" cy="355.7466" r="190.6509" gradientTransform="matrix(0.9692 0 0 1.045 7.8308 -9.1674)" gradientUnits="userSpaceOnUse">
		<stop  offset="0" style="stop-color:#FFFFFF"/>
		<stop  offset="0.1685" style="stop-color:#F9F9F9"/>
		<stop  offset="0.3994" style="stop-color:#E7E7E7"/>
		<stop  offset="0.6664" style="stop-color:#CBCBCA"/>
		<stop  offset="0.9586" style="stop-color:#A3A3A2"/>
		<stop  offset="1" style="stop-color:#9D9D9C"/>
	</radialGradient>
	<path class="st6" d="M503.48,409.43c0,85.39-95.63,112.15-214.78,112.15S71.97,494.82,71.97,409.43s40.8-205.81,216.72-205.81
		C457.98,203.62,503.48,324.04,503.48,409.43z"/>
</g>
<path d="M346.16,465.8c-2.02,2.75-25.55,16.03-39.94,5.45s-14.19-41-12.17-43.75c2.02-2.75,5.09,23.22,19.48,33.8
	S348.18,463.06,346.16,465.8z"/>
<path d="M255.06,325.29c0,49.7-45.62,88.17-73.97,89.04c-44.39,1.37-49.32-48.58-49.32-84.93s31.25-67.22,59.59-68.49
	C252.32,258.16,255.06,288.94,255.06,325.29z"/>
<ellipse cx="207.59" cy="346.92" rx="35.62" ry="39.04"/>
<path class="st7" d="M234.51,339.67c0,21.56-17.79,39.04-39.73,39.04c-15.7,0-30.62-9.76-36.75-24.24
	c-4.96-11.72-4.31-30.45,4.01-40.87c8.2-10.27,26.75-14.38,38.95-12.49c15.16,2.34,28.1,13.56,32.16,28.41
	C234.06,332.82,234.51,336.24,234.51,339.67z"/>
<radialGradient id="SVGID_6_" cx="195.0467" cy="341.3969" r="32.7274" gradientTransform="matrix(0.9192 0 0 0.9565 19.2655 16.5426)" gradientUnits="userSpaceOnUse">
	<stop  offset="0" style="stop-color:#36A9E1"/>
	<stop  offset="0" style="stop-color:#36A9E1"/>
	<stop  offset="0.1028" style="stop-color:#34A5DD"/>
	<stop  offset="0.252" style="stop-color:#2F99D4"/>
	<stop  offset="0.4294" style="stop-color:#2A85C5"/>
	<stop  offset="0.6286" style="stop-color:#2B69AF"/>
	<stop  offset="0.843" style="stop-color:#2F4795"/>
	<stop  offset="1" style="stop-color:#2D2E83"/>
</radialGradient>
<ellipse class="st8" cx="198.55" cy="343.1" rx="31.16" ry="30.14"/>
<ellipse cx="202.32" cy="344.47" rx="13.01" ry="12.33"/>
<ellipse class="st9" cx="195.47" cy="332.14" rx="7.53" ry="6.85"/>
<path class="st9" d="M433.03,597.8c-1.59,38.07-15.47,68.4-15.8,68.39s13.01-30.37,14.6-68.44"/>
<g>
	<path d="M318.33,325.25c-2.08,49.66,41.89,90,70.19,92.06c44.29,3.22,51.3-46.48,52.82-82.8c1.52-36.32-28.41-68.47-56.67-70.92
		C323.88,258.3,319.85,288.93,318.33,325.25z"/>
	<path class="st7" d="M338.26,340.48c-0.9,21.54,16.14,39.75,38.06,40.67c15.69,0.66,31-8.47,37.73-22.69
		c5.44-11.5,5.58-30.25-2.3-41c-7.76-10.6-26.12-15.48-38.39-14.11c-15.24,1.7-28.64,12.37-33.32,27.04
		C339,333.66,338.4,337.06,338.26,340.48z"/>
	
		<radialGradient id="SVGID_7_" cx="566.5377" cy="649.7704" r="32.7274" gradientTransform="matrix(-0.9184 -0.0384 -0.04 0.9557 920.3258 -253.8024)" gradientUnits="userSpaceOnUse">
		<stop  offset="0" style="stop-color:#36A9E1"/>
		<stop  offset="0" style="stop-color:#36A9E1"/>
		<stop  offset="0.1028" style="stop-color:#34A5DD"/>
		<stop  offset="0.252" style="stop-color:#2F99D4"/>
		<stop  offset="0.4294" style="stop-color:#2A85C5"/>
		<stop  offset="0.6286" style="stop-color:#2B69AF"/>
		<stop  offset="0.843" style="stop-color:#2F4795"/>
		<stop  offset="1" style="stop-color:#2D2E83"/>
	</radialGradient>
	<path class="st10" d="M342.91,344.1c-0.7,16.63,12.68,30.69,29.88,31.41c17.2,0.72,31.7-12.18,32.4-28.81
		c0.7-16.63-12.68-30.69-29.88-31.41C358.11,314.58,343.6,327.47,342.91,344.1z"/>
	<ellipse transform="matrix(0.0418 -0.9991 0.9991 0.0418 8.434 702.0302)" cx="370.22" cy="346.62" rx="12.33" ry="13.01"/>
	<ellipse class="st9" cx="377.3" cy="335.59" rx="7.53" ry="6.85"/>
</g>
<path d="M231.51,471.45c2.36,2.46,27.44,12.52,40.31,0.14c12.87-12.38,8.65-42.51,6.29-44.97s-1.98,23.69-14.85,36.07
	C250.39,475.07,229.14,468.99,231.51,471.45z"/>
<path d="M334.55,422.21c0,6.37-21.74,24.91-48.55,24.91s-48.55-18.54-48.55-24.91s21.74,1.83,48.55,1.83
	S334.55,415.84,334.55,422.21z"/>
</svg>
